<mxfile host="Electron" agent="Mozilla/5.0 (Windows NT 10.0; Win64; x64) AppleWebKit/537.36 (KHTML, like Gecko) draw.io/27.0.2 Chrome/134.0.6998.205 Electron/35.3.0 Safari/537.36" version="27.0.2">
  <diagram name="Página-1" id="1dRYaHKbqxav3jx4JAbZ">
    <mxGraphModel dx="3220" dy="4084" grid="1" gridSize="10" guides="1" tooltips="1" connect="1" arrows="1" fold="1" page="1" pageScale="1" pageWidth="827" pageHeight="1169" math="0" shadow="0">
      <root>
        <mxCell id="0" />
        <mxCell id="1" parent="0" />
        <mxCell id="FzE8s1yZVrFRxl1X2ZAz-1" value="&lt;h3 class=&quot;&quot; data-end=&quot;2597&quot; data-start=&quot;2578&quot;&gt;📘 &lt;code data-end=&quot;2597&quot; data-start=&quot;2585&quot;&gt;ImageCache&lt;/code&gt;&lt;/h3&gt;&lt;p class=&quot;&quot; data-end=&quot;2633&quot; data-start=&quot;2598&quot;&gt;&lt;strong data-end=&quot;2633&quot; data-start=&quot;2598&quot;&gt;Funciones principales (static):&lt;/strong&gt;&lt;/p&gt;&lt;ul data-end=&quot;2772&quot; data-start=&quot;2634&quot;&gt;&lt;li class=&quot;&quot; data-end=&quot;2688&quot; data-start=&quot;2634&quot;&gt;&lt;p class=&quot;&quot; data-end=&quot;2688&quot; data-start=&quot;2636&quot;&gt;&lt;code data-end=&quot;2651&quot; data-start=&quot;2636&quot;&gt;getImage(url)&lt;/code&gt;: carga imagen desde caché o archivo.&lt;/p&gt;&lt;/li&gt;&lt;li class=&quot;&quot; data-end=&quot;2737&quot; data-start=&quot;2689&quot;&gt;&lt;p class=&quot;&quot; data-end=&quot;2737&quot; data-start=&quot;2691&quot;&gt;&lt;code data-end=&quot;2710&quot; data-start=&quot;2691&quot;&gt;getDefaultImage()&lt;/code&gt;: devuelve imagen genérica.&lt;/p&gt;&lt;/li&gt;&lt;li class=&quot;&quot; data-end=&quot;2772&quot; data-start=&quot;2738&quot;&gt;&lt;p class=&quot;&quot; data-end=&quot;2772&quot; data-start=&quot;2740&quot;&gt;&lt;code data-end=&quot;2754&quot; data-start=&quot;2740&quot;&gt;clearCache()&lt;/code&gt;: limpia la caché.&lt;/p&gt;&lt;/li&gt;&lt;/ul&gt;" style="rounded=0;whiteSpace=wrap;html=1;" vertex="1" parent="1">
          <mxGeometry x="-826" y="360" width="439" height="170" as="geometry" />
        </mxCell>
        <mxCell id="FzE8s1yZVrFRxl1X2ZAz-2" value="&lt;h3 class=&quot;&quot; data-end=&quot;228&quot; data-start=&quot;196&quot;&gt;📘 &lt;code data-end=&quot;228&quot; data-start=&quot;203&quot;&gt;AdminUsuariosController&lt;/code&gt;&lt;/h3&gt;&lt;p class=&quot;&quot; data-end=&quot;255&quot; data-start=&quot;229&quot;&gt;&lt;strong data-end=&quot;255&quot; data-start=&quot;229&quot;&gt;Funciones principales:&lt;/strong&gt;&lt;/p&gt;&lt;ul data-end=&quot;974&quot; data-start=&quot;256&quot;&gt;&lt;li class=&quot;&quot; data-end=&quot;314&quot; data-start=&quot;256&quot;&gt;&lt;p class=&quot;&quot; data-end=&quot;314&quot; data-start=&quot;258&quot;&gt;&lt;code data-end=&quot;272&quot; data-start=&quot;258&quot;&gt;initialize()&lt;/code&gt;: inicializa la vista y verifica permisos.&lt;/p&gt;&lt;/li&gt;&lt;li class=&quot;&quot; data-end=&quot;384&quot; data-start=&quot;315&quot;&gt;&lt;p class=&quot;&quot; data-end=&quot;384&quot; data-start=&quot;317&quot;&gt;&lt;code data-end=&quot;339&quot; data-start=&quot;317&quot;&gt;configurarColumnas()&lt;/code&gt;: configura columnas de la tabla de usuarios.&lt;/p&gt;&lt;/li&gt;&lt;li class=&quot;&quot; data-end=&quot;436&quot; data-start=&quot;385&quot;&gt;&lt;p class=&quot;&quot; data-end=&quot;436&quot; data-start=&quot;387&quot;&gt;&lt;code data-end=&quot;408&quot; data-start=&quot;387&quot;&gt;configurarEventos()&lt;/code&gt;: asigna acciones a botones.&lt;/p&gt;&lt;/li&gt;&lt;li class=&quot;&quot; data-end=&quot;497&quot; data-start=&quot;437&quot;&gt;&lt;p class=&quot;&quot; data-end=&quot;497&quot; data-start=&quot;439&quot;&gt;&lt;code data-end=&quot;460&quot; data-start=&quot;439&quot;&gt;configurarFiltros()&lt;/code&gt;: inicializa los filtros de la tabla.&lt;/p&gt;&lt;/li&gt;&lt;li class=&quot;&quot; data-end=&quot;551&quot; data-start=&quot;498&quot;&gt;&lt;p class=&quot;&quot; data-end=&quot;551&quot; data-start=&quot;500&quot;&gt;&lt;code data-end=&quot;518&quot; data-start=&quot;500&quot;&gt;aplicarFiltros()&lt;/code&gt;: aplica filtros por texto o rol.&lt;/p&gt;&lt;/li&gt;&lt;li class=&quot;&quot; data-end=&quot;601&quot; data-start=&quot;552&quot;&gt;&lt;p class=&quot;&quot; data-end=&quot;601&quot; data-start=&quot;554&quot;&gt;&lt;code data-end=&quot;572&quot; data-start=&quot;554&quot;&gt;cargarUsuarios()&lt;/code&gt;: carga empleados y clientes.&lt;/p&gt;&lt;/li&gt;&lt;li class=&quot;&quot; data-end=&quot;666&quot; data-start=&quot;602&quot;&gt;&lt;p class=&quot;&quot; data-end=&quot;666&quot; data-start=&quot;604&quot;&gt;&lt;code data-end=&quot;627&quot; data-start=&quot;604&quot;&gt;abrirDialogoAgregar()&lt;/code&gt;: abre el diálogo para añadir usuarios.&lt;/p&gt;&lt;/li&gt;&lt;li class=&quot;&quot; data-end=&quot;728&quot; data-start=&quot;667&quot;&gt;&lt;p class=&quot;&quot; data-end=&quot;728&quot; data-start=&quot;669&quot;&gt;&lt;code data-end=&quot;699&quot; data-start=&quot;669&quot;&gt;abrirDialogoEdicion(usuario)&lt;/code&gt;: abre el diálogo de edición.&lt;/p&gt;&lt;/li&gt;&lt;li class=&quot;&quot; data-end=&quot;803&quot; data-start=&quot;729&quot;&gt;&lt;p class=&quot;&quot; data-end=&quot;803&quot; data-start=&quot;731&quot;&gt;&lt;code data-end=&quot;771&quot; data-start=&quot;731&quot;&gt;actualizarUsuario(usuario, esEmpleado)&lt;/code&gt;: actualiza un usuario en la BD.&lt;/p&gt;&lt;/li&gt;&lt;li class=&quot;&quot; data-end=&quot;862&quot; data-start=&quot;804&quot;&gt;&lt;p class=&quot;&quot; data-end=&quot;862&quot; data-start=&quot;806&quot;&gt;&lt;code data-end=&quot;832&quot; data-start=&quot;806&quot;&gt;eliminarUsuario(usuario)&lt;/code&gt;: elimina un usuario de la BD.&lt;/p&gt;&lt;/li&gt;&lt;li class=&quot;&quot; data-end=&quot;919&quot; data-start=&quot;863&quot;&gt;&lt;p class=&quot;&quot; data-end=&quot;919&quot; data-start=&quot;865&quot;&gt;&lt;code data-end=&quot;903&quot; data-start=&quot;865&quot;&gt;mostrarMensajeError(titulo, mensaje)&lt;/code&gt;: muestra error.&lt;/p&gt;&lt;/li&gt;&lt;li class=&quot;&quot; data-end=&quot;974&quot; data-start=&quot;920&quot;&gt;&lt;p class=&quot;&quot; data-end=&quot;974&quot; data-start=&quot;922&quot;&gt;&lt;code data-end=&quot;959&quot; data-start=&quot;922&quot;&gt;mostrarMensajeInfo(titulo, mensaje)&lt;/code&gt;: muestra info.&lt;/p&gt;&lt;/li&gt;&lt;/ul&gt;" style="rounded=0;whiteSpace=wrap;html=1;" vertex="1" parent="1">
          <mxGeometry x="-827" y="-1380" width="440" height="440" as="geometry" />
        </mxCell>
        <mxCell id="FzE8s1yZVrFRxl1X2ZAz-3" value="&lt;h3 class=&quot;&quot; data-end=&quot;1007&quot; data-start=&quot;981&quot;&gt;📘 &lt;code data-end=&quot;1007&quot; data-start=&quot;988&quot;&gt;CarritoController&lt;/code&gt;&lt;/h3&gt;&lt;p class=&quot;&quot; data-end=&quot;1034&quot; data-start=&quot;1008&quot;&gt;&lt;strong data-end=&quot;1034&quot; data-start=&quot;1008&quot;&gt;Funciones principales:&lt;/strong&gt;&lt;/p&gt;&lt;ul data-end=&quot;1503&quot; data-start=&quot;1035&quot;&gt;&lt;li class=&quot;&quot; data-end=&quot;1075&quot; data-start=&quot;1035&quot;&gt;&lt;p class=&quot;&quot; data-end=&quot;1075&quot; data-start=&quot;1037&quot;&gt;&lt;code data-end=&quot;1051&quot; data-start=&quot;1037&quot;&gt;initialize()&lt;/code&gt;: inicializa el carrito.&lt;/p&gt;&lt;/li&gt;&lt;li class=&quot;&quot; data-end=&quot;1125&quot; data-start=&quot;1076&quot;&gt;&lt;p class=&quot;&quot; data-end=&quot;1125&quot; data-start=&quot;1078&quot;&gt;&lt;code data-end=&quot;1095&quot; data-start=&quot;1078&quot;&gt;cargarCarrito()&lt;/code&gt;: carga productos del carrito.&lt;/p&gt;&lt;/li&gt;&lt;li class=&quot;&quot; data-end=&quot;1185&quot; data-start=&quot;1126&quot;&gt;&lt;p class=&quot;&quot; data-end=&quot;1185&quot; data-start=&quot;1128&quot;&gt;&lt;code data-end=&quot;1149&quot; data-start=&quot;1128&quot;&gt;crearFilaItem(item)&lt;/code&gt;: genera fila visual de un producto.&lt;/p&gt;&lt;/li&gt;&lt;li class=&quot;&quot; data-end=&quot;1243&quot; data-start=&quot;1186&quot;&gt;&lt;p class=&quot;&quot; data-end=&quot;1243&quot; data-start=&quot;1188&quot;&gt;&lt;code data-end=&quot;1209&quot; data-start=&quot;1188&quot;&gt;actualizarResumen()&lt;/code&gt;: muestra subtotal, envío y total.&lt;/p&gt;&lt;/li&gt;&lt;li class=&quot;&quot; data-end=&quot;1287&quot; data-start=&quot;1244&quot;&gt;&lt;p class=&quot;&quot; data-end=&quot;1287&quot; data-start=&quot;1246&quot;&gt;&lt;code data-end=&quot;1263&quot; data-start=&quot;1246&quot;&gt;vaciarCarrito()&lt;/code&gt;: vacía todo el carrito.&lt;/p&gt;&lt;/li&gt;&lt;li class=&quot;&quot; data-end=&quot;1336&quot; data-start=&quot;1288&quot;&gt;&lt;p class=&quot;&quot; data-end=&quot;1336&quot; data-start=&quot;1290&quot;&gt;&lt;code data-end=&quot;1303&quot; data-start=&quot;1290&quot;&gt;irATienda()&lt;/code&gt;: vuelve a la vista de productos.&lt;/p&gt;&lt;/li&gt;&lt;li class=&quot;&quot; data-end=&quot;1379&quot; data-start=&quot;1337&quot;&gt;&lt;p class=&quot;&quot; data-end=&quot;1379&quot; data-start=&quot;1339&quot;&gt;&lt;code data-end=&quot;1358&quot; data-start=&quot;1339&quot;&gt;finalizarCompra()&lt;/code&gt;: registra el pedido.&lt;/p&gt;&lt;/li&gt;&lt;li class=&quot;&quot; data-end=&quot;1445&quot; data-start=&quot;1380&quot;&gt;&lt;p class=&quot;&quot; data-end=&quot;1445&quot; data-start=&quot;1382&quot;&gt;&lt;code data-end=&quot;1412&quot; data-start=&quot;1382&quot;&gt;clienteExisteEnBD(clienteId)&lt;/code&gt;: comprueba si el cliente existe.&lt;/p&gt;&lt;/li&gt;&lt;li class=&quot;&quot; data-end=&quot;1503&quot; data-start=&quot;1446&quot;&gt;&lt;p class=&quot;&quot; data-end=&quot;1503&quot; data-start=&quot;1448&quot;&gt;&lt;code data-end=&quot;1486&quot; data-start=&quot;1448&quot;&gt;mostrarAlerta(titulo, mensaje, tipo)&lt;/code&gt;: muestra alerta.&lt;/p&gt;&lt;/li&gt;&lt;/ul&gt;" style="rounded=0;whiteSpace=wrap;html=1;" vertex="1" parent="1">
          <mxGeometry x="-827" y="-910" width="437" height="330" as="geometry" />
        </mxCell>
        <mxCell id="FzE8s1yZVrFRxl1X2ZAz-6" value="&lt;h3 class=&quot;&quot; data-end=&quot;1543&quot; data-start=&quot;1510&quot;&gt;📘 &lt;code data-end=&quot;1543&quot; data-start=&quot;1517&quot;&gt;DialogoUsuarioController&lt;/code&gt;&lt;/h3&gt;&lt;p class=&quot;&quot; data-end=&quot;1570&quot; data-start=&quot;1544&quot;&gt;&lt;strong data-end=&quot;1570&quot; data-start=&quot;1544&quot;&gt;Funciones principales:&lt;/strong&gt;&lt;/p&gt;&lt;ul data-end=&quot;1962&quot; data-start=&quot;1571&quot;&gt;&lt;li class=&quot;&quot; data-end=&quot;1615&quot; data-start=&quot;1571&quot;&gt;&lt;p class=&quot;&quot; data-end=&quot;1615&quot; data-start=&quot;1573&quot;&gt;&lt;code data-end=&quot;1587&quot; data-start=&quot;1573&quot;&gt;initialize()&lt;/code&gt;: inicializa campos y roles.&lt;/p&gt;&lt;/li&gt;&lt;li class=&quot;&quot; data-end=&quot;1662&quot; data-start=&quot;1616&quot;&gt;&lt;p class=&quot;&quot; data-end=&quot;1662&quot; data-start=&quot;1618&quot;&gt;&lt;code data-end=&quot;1636&quot; data-start=&quot;1618&quot;&gt;guardarUsuario()&lt;/code&gt;: crea o edita un usuario.&lt;/p&gt;&lt;/li&gt;&lt;li class=&quot;&quot; data-end=&quot;1708&quot; data-start=&quot;1663&quot;&gt;&lt;p class=&quot;&quot; data-end=&quot;1708&quot; data-start=&quot;1665&quot;&gt;&lt;code data-end=&quot;1682&quot; data-start=&quot;1665&quot;&gt;validarCampos()&lt;/code&gt;: valida inputs según rol.&lt;/p&gt;&lt;/li&gt;&lt;li class=&quot;&quot; data-end=&quot;1757&quot; data-start=&quot;1709&quot;&gt;&lt;p class=&quot;&quot; data-end=&quot;1757&quot; data-start=&quot;1711&quot;&gt;&lt;code data-end=&quot;1730&quot; data-start=&quot;1711&quot;&gt;seleccionarFoto()&lt;/code&gt;: elige imagen para perfil.&lt;/p&gt;&lt;/li&gt;&lt;li class=&quot;&quot; data-end=&quot;1795&quot; data-start=&quot;1758&quot;&gt;&lt;p class=&quot;&quot; data-end=&quot;1795&quot; data-start=&quot;1760&quot;&gt;&lt;code data-end=&quot;1777&quot; data-start=&quot;1760&quot;&gt;cerrarDialogo()&lt;/code&gt;: cierra el modal.&lt;/p&gt;&lt;/li&gt;&lt;li class=&quot;&quot; data-end=&quot;1849&quot; data-start=&quot;1796&quot;&gt;&lt;p class=&quot;&quot; data-end=&quot;1849&quot; data-start=&quot;1798&quot;&gt;&lt;code data-end=&quot;1819&quot; data-start=&quot;1798&quot;&gt;setUsuario(usuario)&lt;/code&gt;: carga los datos para editar.&lt;/p&gt;&lt;/li&gt;&lt;li class=&quot;&quot; data-end=&quot;1903&quot; data-start=&quot;1850&quot;&gt;&lt;p class=&quot;&quot; data-end=&quot;1903&quot; data-start=&quot;1852&quot;&gt;&lt;code data-end=&quot;1874&quot; data-start=&quot;1852&quot;&gt;setModoEdicion(modo)&lt;/code&gt;: define si se está editando.&lt;/p&gt;&lt;/li&gt;&lt;li class=&quot;&quot; data-end=&quot;1962&quot; data-start=&quot;1904&quot;&gt;&lt;p class=&quot;&quot; data-end=&quot;1962&quot; data-start=&quot;1906&quot;&gt;&lt;code data-end=&quot;1938&quot; data-start=&quot;1906&quot;&gt;setOnGuardarListener(listener)&lt;/code&gt;: callback para guardar.&lt;/p&gt;&lt;/li&gt;&lt;/ul&gt;" style="rounded=0;whiteSpace=wrap;html=1;" vertex="1" parent="1">
          <mxGeometry x="-828" y="-550" width="437" height="310" as="geometry" />
        </mxCell>
        <mxCell id="FzE8s1yZVrFRxl1X2ZAz-8" value="&lt;h3 class=&quot;&quot; data-end=&quot;1992&quot; data-start=&quot;1969&quot;&gt;📘 &lt;code data-end=&quot;1992&quot; data-start=&quot;1976&quot;&gt;MenuController&lt;/code&gt;&lt;/h3&gt;&lt;p class=&quot;&quot; data-end=&quot;2019&quot; data-start=&quot;1993&quot;&gt;&lt;strong data-end=&quot;2019&quot; data-start=&quot;1993&quot;&gt;Funciones principales:&lt;/strong&gt;&lt;/p&gt;&lt;ul data-end=&quot;2370&quot; data-start=&quot;2020&quot;&gt;&lt;li class=&quot;&quot; data-end=&quot;2076&quot; data-start=&quot;2020&quot;&gt;&lt;p class=&quot;&quot; data-end=&quot;2076&quot; data-start=&quot;2022&quot;&gt;&lt;code data-end=&quot;2036&quot; data-start=&quot;2022&quot;&gt;initialize()&lt;/code&gt;: inicia menú lateral y vista de inicio.&lt;/p&gt;&lt;/li&gt;&lt;li class=&quot;&quot; data-end=&quot;2140&quot; data-start=&quot;2077&quot;&gt;&lt;p class=&quot;&quot; data-end=&quot;2140&quot; data-start=&quot;2079&quot;&gt;&lt;code data-end=&quot;2108&quot; data-start=&quot;2079&quot;&gt;actualizarContadorCarrito()&lt;/code&gt;: muestra cantidad de productos.&lt;/p&gt;&lt;/li&gt;&lt;li class=&quot;&quot; data-end=&quot;2193&quot; data-start=&quot;2141&quot;&gt;&lt;p class=&quot;&quot; data-end=&quot;2193&quot; data-start=&quot;2143&quot;&gt;&lt;code data-end=&quot;2163&quot; data-start=&quot;2143&quot;&gt;cargarFotoPerfil()&lt;/code&gt;: carga la imagen del usuario.&lt;/p&gt;&lt;/li&gt;&lt;li class=&quot;&quot; data-end=&quot;2316&quot; data-start=&quot;2194&quot;&gt;&lt;p class=&quot;&quot; data-end=&quot;2316&quot; data-start=&quot;2196&quot;&gt;&lt;code data-end=&quot;2213&quot; data-start=&quot;2196&quot;&gt;onInicioClick()&lt;/code&gt;, &lt;code data-end=&quot;2235&quot; data-start=&quot;2215&quot;&gt;onProductosClick()&lt;/code&gt;, &lt;code data-end=&quot;2255&quot; data-start=&quot;2237&quot;&gt;onCarritoClick()&lt;/code&gt;, &lt;code data-end=&quot;2275&quot; data-start=&quot;2257&quot;&gt;onPedidosClick()&lt;/code&gt;, &lt;code data-end=&quot;2293&quot; data-start=&quot;2277&quot;&gt;onAdminClick()&lt;/code&gt;: controlan navegación.&lt;/p&gt;&lt;/li&gt;&lt;li class=&quot;&quot; data-end=&quot;2370&quot; data-start=&quot;2317&quot;&gt;&lt;p class=&quot;&quot; data-end=&quot;2370&quot; data-start=&quot;2319&quot;&gt;&lt;code data-end=&quot;2336&quot; data-start=&quot;2319&quot;&gt;onLogoutClick()&lt;/code&gt;: cierra sesión y vuelve al login.&lt;/p&gt;&lt;/li&gt;&lt;/ul&gt;" style="rounded=0;whiteSpace=wrap;html=1;" vertex="1" parent="1">
          <mxGeometry x="-828" y="-210" width="437" height="230" as="geometry" />
        </mxCell>
        <mxCell id="FzE8s1yZVrFRxl1X2ZAz-9" value="&lt;h3 class=&quot;&quot; data-end=&quot;2401&quot; data-start=&quot;2377&quot;&gt;📘 &lt;code data-end=&quot;2401&quot; data-start=&quot;2384&quot;&gt;LoginController&lt;/code&gt;&lt;/h3&gt;&lt;p class=&quot;&quot; data-end=&quot;2428&quot; data-start=&quot;2402&quot;&gt;&lt;strong data-end=&quot;2428&quot; data-start=&quot;2402&quot;&gt;Funciones principales:&lt;/strong&gt;&lt;/p&gt;&lt;ul data-end=&quot;2571&quot; data-start=&quot;2429&quot;&gt;&lt;li class=&quot;&quot; data-end=&quot;2458&quot; data-start=&quot;2429&quot;&gt;&lt;p class=&quot;&quot; data-end=&quot;2458&quot; data-start=&quot;2431&quot;&gt;&lt;code data-end=&quot;2445&quot; data-start=&quot;2431&quot;&gt;initialize()&lt;/code&gt;: carga logo.&lt;/p&gt;&lt;/li&gt;&lt;li class=&quot;&quot; data-end=&quot;2512&quot; data-start=&quot;2459&quot;&gt;&lt;p class=&quot;&quot; data-end=&quot;2512&quot; data-start=&quot;2461&quot;&gt;&lt;code data-end=&quot;2477&quot; data-start=&quot;2461&quot;&gt;onLoginClick()&lt;/code&gt;: autentica usuario y cambia vista.&lt;/p&gt;&lt;/li&gt;&lt;li class=&quot;&quot; data-end=&quot;2571&quot; data-start=&quot;2513&quot;&gt;&lt;p class=&quot;&quot; data-end=&quot;2571&quot; data-start=&quot;2515&quot;&gt;&lt;code data-end=&quot;2542&quot; data-start=&quot;2515&quot;&gt;onRegistrarseClick(event)&lt;/code&gt;: cambia a vista de registro.&lt;/p&gt;&lt;/li&gt;&lt;/ul&gt;" style="rounded=0;whiteSpace=wrap;html=1;" vertex="1" parent="1">
          <mxGeometry x="-828" y="40" width="439" height="150" as="geometry" />
        </mxCell>
        <mxCell id="FzE8s1yZVrFRxl1X2ZAz-10" value="&lt;h3 class=&quot;&quot; data-end=&quot;2597&quot; data-start=&quot;2578&quot;&gt;📘 &lt;code data-end=&quot;2597&quot; data-start=&quot;2585&quot;&gt;ImageCache&lt;/code&gt;&lt;/h3&gt;&lt;p class=&quot;&quot; data-end=&quot;2633&quot; data-start=&quot;2598&quot;&gt;&lt;strong data-end=&quot;2633&quot; data-start=&quot;2598&quot;&gt;Funciones principales (static):&lt;/strong&gt;&lt;/p&gt;&lt;ul data-end=&quot;2772&quot; data-start=&quot;2634&quot;&gt;&lt;li class=&quot;&quot; data-end=&quot;2688&quot; data-start=&quot;2634&quot;&gt;&lt;p class=&quot;&quot; data-end=&quot;2688&quot; data-start=&quot;2636&quot;&gt;&lt;code data-end=&quot;2651&quot; data-start=&quot;2636&quot;&gt;getImage(url)&lt;/code&gt;: carga imagen desde caché o archivo.&lt;/p&gt;&lt;/li&gt;&lt;li class=&quot;&quot; data-end=&quot;2737&quot; data-start=&quot;2689&quot;&gt;&lt;p class=&quot;&quot; data-end=&quot;2737&quot; data-start=&quot;2691&quot;&gt;&lt;code data-end=&quot;2710&quot; data-start=&quot;2691&quot;&gt;getDefaultImage()&lt;/code&gt;: devuelve imagen genérica.&lt;/p&gt;&lt;/li&gt;&lt;li class=&quot;&quot; data-end=&quot;2772&quot; data-start=&quot;2738&quot;&gt;&lt;p class=&quot;&quot; data-end=&quot;2772&quot; data-start=&quot;2740&quot;&gt;&lt;code data-end=&quot;2754&quot; data-start=&quot;2740&quot;&gt;clearCache()&lt;/code&gt;: limpia la caché.&lt;/p&gt;&lt;/li&gt;&lt;/ul&gt;" style="rounded=0;whiteSpace=wrap;html=1;" vertex="1" parent="1">
          <mxGeometry x="-826" y="210" width="437" height="140" as="geometry" />
        </mxCell>
        <mxCell id="FzE8s1yZVrFRxl1X2ZAz-11" value="&lt;h4 class=&quot;&quot; data-end=&quot;341&quot; data-start=&quot;317&quot;&gt;📘 Clase &lt;code data-end=&quot;341&quot; data-start=&quot;331&quot;&gt;Producto&lt;/code&gt;&lt;/h4&gt;&lt;ul data-end=&quot;473&quot; data-start=&quot;342&quot;&gt;&lt;li class=&quot;&quot; data-end=&quot;436&quot; data-start=&quot;342&quot;&gt;&lt;p class=&quot;&quot; data-end=&quot;358&quot; data-start=&quot;344&quot;&gt;&lt;strong data-end=&quot;358&quot; data-start=&quot;344&quot;&gt;Atributos:&lt;/strong&gt;&lt;/p&gt;&lt;ul data-end=&quot;436&quot; data-start=&quot;361&quot;&gt;&lt;li class=&quot;&quot; data-end=&quot;371&quot; data-start=&quot;361&quot;&gt;&lt;p class=&quot;&quot; data-end=&quot;371&quot; data-start=&quot;363&quot;&gt;&lt;code data-end=&quot;371&quot; data-start=&quot;363&quot;&gt;int id&lt;/code&gt;&lt;/p&gt;&lt;/li&gt;&lt;li class=&quot;&quot; data-end=&quot;391&quot; data-start=&quot;374&quot;&gt;&lt;p class=&quot;&quot; data-end=&quot;391&quot; data-start=&quot;376&quot;&gt;&lt;code data-end=&quot;391&quot; data-start=&quot;376&quot;&gt;String nombre&lt;/code&gt;&lt;/p&gt;&lt;/li&gt;&lt;li class=&quot;&quot; data-end=&quot;416&quot; data-start=&quot;394&quot;&gt;&lt;p class=&quot;&quot; data-end=&quot;416&quot; data-start=&quot;396&quot;&gt;&lt;code data-end=&quot;416&quot; data-start=&quot;396&quot;&gt;String descripcion&lt;/code&gt;&lt;/p&gt;&lt;/li&gt;&lt;li class=&quot;&quot; data-end=&quot;436&quot; data-start=&quot;419&quot;&gt;&lt;p class=&quot;&quot; data-end=&quot;436&quot; data-start=&quot;421&quot;&gt;&lt;code data-end=&quot;436&quot; data-start=&quot;421&quot;&gt;double precio&lt;/code&gt;&lt;/p&gt;&lt;/li&gt;&lt;li class=&quot;&quot; data-end=&quot;436&quot; data-start=&quot;419&quot;&gt;&lt;p class=&quot;&quot; data-end=&quot;451&quot; data-start=&quot;439&quot;&gt;&lt;strong data-end=&quot;451&quot; data-start=&quot;439&quot;&gt;Métodos:&lt;/strong&gt;&lt;/p&gt;&lt;ul data-end=&quot;473&quot; data-start=&quot;454&quot;&gt;&lt;li class=&quot;&quot; data-end=&quot;473&quot; data-start=&quot;454&quot;&gt;&lt;p class=&quot;&quot; data-end=&quot;473&quot; data-start=&quot;456&quot;&gt;Getters y setters&lt;/p&gt;&lt;/li&gt;&lt;li class=&quot;&quot; data-end=&quot;473&quot; data-start=&quot;454&quot;&gt;&lt;p class=&quot;&quot; data-end=&quot;473&quot; data-start=&quot;456&quot;&gt;(get id; get nombre, get descripcion, get precio)&lt;/p&gt;&lt;/li&gt;&lt;li class=&quot;&quot; data-end=&quot;473&quot; data-start=&quot;454&quot;&gt;&lt;ul data-end=&quot;473&quot; data-start=&quot;454&quot;&gt;&lt;li class=&quot;&quot; data-end=&quot;473&quot; data-start=&quot;454&quot;&gt;&lt;p class=&quot;&quot; data-end=&quot;473&quot; data-start=&quot;456&quot;&gt;(set id; set nombre, set descripcion, set precio)&lt;/p&gt;&lt;/li&gt;&lt;/ul&gt;&lt;/li&gt;&lt;li class=&quot;&quot; data-end=&quot;473&quot; data-start=&quot;454&quot;&gt;&lt;p class=&quot;&quot; data-end=&quot;473&quot; data-start=&quot;456&quot;&gt;Constructor&lt;/p&gt;&lt;/li&gt;&lt;/ul&gt;&lt;/li&gt;&lt;/ul&gt;&lt;/li&gt;&lt;/ul&gt;" style="rounded=0;whiteSpace=wrap;html=1;" vertex="1" parent="1">
          <mxGeometry x="-370" y="-1380" width="470" height="300" as="geometry" />
        </mxCell>
        <mxCell id="FzE8s1yZVrFRxl1X2ZAz-12" value="&lt;h4 class=&quot;&quot; data-end=&quot;498&quot; data-start=&quot;475&quot;&gt;📘 Clase &lt;code data-end=&quot;498&quot; data-start=&quot;489&quot;&gt;Cliente&lt;/code&gt;&lt;/h4&gt;&lt;ul data-end=&quot;626&quot; data-start=&quot;499&quot;&gt;&lt;li class=&quot;&quot; data-end=&quot;589&quot; data-start=&quot;499&quot;&gt;&lt;p class=&quot;&quot; data-end=&quot;515&quot; data-start=&quot;501&quot;&gt;&lt;strong data-end=&quot;515&quot; data-start=&quot;501&quot;&gt;Atributos:&lt;/strong&gt;&lt;/p&gt;&lt;ul data-end=&quot;589&quot; data-start=&quot;518&quot;&gt;&lt;li class=&quot;&quot; data-end=&quot;528&quot; data-start=&quot;518&quot;&gt;&lt;p class=&quot;&quot; data-end=&quot;528&quot; data-start=&quot;520&quot;&gt;&lt;code data-end=&quot;528&quot; data-start=&quot;520&quot;&gt;int id&lt;/code&gt;&lt;/p&gt;&lt;/li&gt;&lt;li class=&quot;&quot; data-end=&quot;548&quot; data-start=&quot;531&quot;&gt;&lt;p class=&quot;&quot; data-end=&quot;548&quot; data-start=&quot;533&quot;&gt;&lt;code data-end=&quot;548&quot; data-start=&quot;533&quot;&gt;String nombre&lt;/code&gt;&lt;/p&gt;&lt;/li&gt;&lt;li class=&quot;&quot; data-end=&quot;567&quot; data-start=&quot;551&quot;&gt;&lt;p class=&quot;&quot; data-end=&quot;567&quot; data-start=&quot;553&quot;&gt;&lt;code data-end=&quot;567&quot; data-start=&quot;553&quot;&gt;String email&lt;/code&gt;&lt;/p&gt;&lt;/li&gt;&lt;li class=&quot;&quot; data-end=&quot;589&quot; data-start=&quot;570&quot;&gt;&lt;p class=&quot;&quot; data-end=&quot;589&quot; data-start=&quot;572&quot;&gt;&lt;code data-end=&quot;589&quot; data-start=&quot;572&quot;&gt;String telefono&lt;/code&gt;&lt;/p&gt;&lt;/li&gt;&lt;/ul&gt;&lt;/li&gt;&lt;li class=&quot;&quot; data-end=&quot;626&quot; data-start=&quot;590&quot;&gt;&lt;p class=&quot;&quot; data-end=&quot;604&quot; data-start=&quot;592&quot;&gt;&lt;strong data-end=&quot;604&quot; data-start=&quot;592&quot;&gt;Métodos:&lt;/strong&gt;&lt;/p&gt;&lt;ul data-end=&quot;626&quot; data-start=&quot;607&quot;&gt;&lt;li class=&quot;&quot; data-end=&quot;626&quot; data-start=&quot;607&quot;&gt;&lt;p class=&quot;&quot; data-end=&quot;626&quot; data-start=&quot;609&quot;&gt;Getters y setters&lt;/p&gt;&lt;/li&gt;&lt;li class=&quot;&quot; data-end=&quot;626&quot; data-start=&quot;607&quot;&gt;&lt;ul data-end=&quot;807&quot; data-start=&quot;788&quot;&gt;&lt;li class=&quot;&quot; data-end=&quot;807&quot; data-start=&quot;788&quot;&gt;&lt;p class=&quot;&quot; data-end=&quot;807&quot; data-start=&quot;790&quot;&gt;(get id, get nombre, get telefono)&lt;/p&gt;&lt;/li&gt;&lt;li class=&quot;&quot; data-end=&quot;807&quot; data-start=&quot;788&quot;&gt;&lt;p class=&quot;&quot; data-end=&quot;807&quot; data-start=&quot;790&quot;&gt;&lt;span style=&quot;background-color: transparent; color: light-dark(rgb(0, 0, 0), rgb(255, 255, 255));&quot;&gt;(set id, set nombre, set telefono)&lt;/span&gt;&lt;/p&gt;&lt;/li&gt;&lt;/ul&gt;&lt;/li&gt;&lt;li class=&quot;&quot; data-end=&quot;626&quot; data-start=&quot;607&quot;&gt;&lt;p class=&quot;&quot; data-end=&quot;626&quot; data-start=&quot;609&quot;&gt;Contructor&lt;/p&gt;&lt;/li&gt;&lt;/ul&gt;&lt;/li&gt;&lt;/ul&gt;" style="rounded=0;whiteSpace=wrap;html=1;" vertex="1" parent="1">
          <mxGeometry x="-370" y="-1069" width="340" height="289" as="geometry" />
        </mxCell>
        <mxCell id="FzE8s1yZVrFRxl1X2ZAz-14" value="&lt;h4 class=&quot;&quot; data-end=&quot;650&quot; data-start=&quot;628&quot;&gt;&lt;span style=&quot;background-color: transparent; color: light-dark(rgb(0, 0, 0), rgb(255, 255, 255)); font-weight: normal;&quot;&gt;📘&lt;/span&gt;Clase &lt;code data-end=&quot;650&quot; data-start=&quot;642&quot;&gt;Pedido&lt;/code&gt;&lt;/h4&gt;&lt;ul data-end=&quot;807&quot; data-start=&quot;651&quot;&gt;&lt;li class=&quot;&quot; data-end=&quot;724&quot; data-start=&quot;651&quot;&gt;&lt;p class=&quot;&quot; data-end=&quot;667&quot; data-start=&quot;653&quot;&gt;&lt;strong data-end=&quot;667&quot; data-start=&quot;653&quot;&gt;Atributos:&lt;/strong&gt;&lt;/p&gt;&lt;ul data-end=&quot;724&quot; data-start=&quot;670&quot;&gt;&lt;li class=&quot;&quot; data-end=&quot;680&quot; data-start=&quot;670&quot;&gt;&lt;p class=&quot;&quot; data-end=&quot;680&quot; data-start=&quot;672&quot;&gt;&lt;code data-end=&quot;680&quot; data-start=&quot;672&quot;&gt;int id&lt;/code&gt;&lt;/p&gt;&lt;/li&gt;&lt;li class=&quot;&quot; data-end=&quot;702&quot; data-start=&quot;683&quot;&gt;&lt;p class=&quot;&quot; data-end=&quot;702&quot; data-start=&quot;685&quot;&gt;&lt;code data-end=&quot;702&quot; data-start=&quot;685&quot;&gt;Cliente cliente&lt;/code&gt;&lt;/p&gt;&lt;/li&gt;&lt;li class=&quot;&quot; data-end=&quot;724&quot; data-start=&quot;705&quot;&gt;&lt;p class=&quot;&quot; data-end=&quot;724&quot; data-start=&quot;707&quot;&gt;&lt;code data-end=&quot;724&quot; data-start=&quot;707&quot;&gt;LocalDate fecha&lt;/code&gt;&lt;/p&gt;&lt;/li&gt;&lt;/ul&gt;&lt;/li&gt;&lt;li class=&quot;&quot; data-end=&quot;770&quot; data-start=&quot;725&quot;&gt;&lt;p class=&quot;&quot; data-end=&quot;742&quot; data-start=&quot;727&quot;&gt;&lt;strong data-end=&quot;742&quot; data-start=&quot;727&quot;&gt;Relaciones:&lt;/strong&gt;&lt;/p&gt;&lt;ul data-end=&quot;770&quot; data-start=&quot;745&quot;&gt;&lt;li class=&quot;&quot; data-end=&quot;770&quot; data-start=&quot;745&quot;&gt;&lt;p class=&quot;&quot; data-end=&quot;770&quot; data-start=&quot;747&quot;&gt;1 Pedido ➝ * ItemPedido&lt;/p&gt;&lt;/li&gt;&lt;/ul&gt;&lt;/li&gt;&lt;li class=&quot;&quot; data-end=&quot;807&quot; data-start=&quot;771&quot;&gt;&lt;p class=&quot;&quot; data-end=&quot;785&quot; data-start=&quot;773&quot;&gt;&lt;strong data-end=&quot;785&quot; data-start=&quot;773&quot;&gt;Métodos:&lt;/strong&gt;&lt;/p&gt;&lt;ul data-end=&quot;807&quot; data-start=&quot;788&quot;&gt;&lt;li class=&quot;&quot; data-end=&quot;807&quot; data-start=&quot;788&quot;&gt;&lt;p class=&quot;&quot; data-end=&quot;807&quot; data-start=&quot;790&quot;&gt;Getters y setters&lt;/p&gt;&lt;/li&gt;&lt;li class=&quot;&quot; data-end=&quot;807&quot; data-start=&quot;788&quot;&gt;&lt;p class=&quot;&quot; data-end=&quot;807&quot; data-start=&quot;790&quot;&gt;(get id, get cliente, get fecha)&lt;/p&gt;&lt;/li&gt;&lt;li class=&quot;&quot; data-end=&quot;807&quot; data-start=&quot;788&quot;&gt;&lt;p class=&quot;&quot; data-end=&quot;807&quot; data-start=&quot;790&quot;&gt;&lt;span style=&quot;background-color: transparent; color: light-dark(rgb(0, 0, 0), rgb(255, 255, 255));&quot;&gt;(set id, set cliente, set fecha)&lt;/span&gt;&lt;/p&gt;&lt;/li&gt;&lt;li class=&quot;&quot; data-end=&quot;807&quot; data-start=&quot;788&quot;&gt;&lt;p class=&quot;&quot; data-end=&quot;807&quot; data-start=&quot;790&quot;&gt;Constructor&lt;/p&gt;&lt;/li&gt;&lt;/ul&gt;&lt;/li&gt;&lt;/ul&gt;" style="rounded=0;whiteSpace=wrap;html=1;" vertex="1" parent="1">
          <mxGeometry x="-370" y="-770" width="340" height="321" as="geometry" />
        </mxCell>
        <mxCell id="FzE8s1yZVrFRxl1X2ZAz-15" value="&lt;h4 class=&quot;&quot; data-end=&quot;835&quot; data-start=&quot;809&quot;&gt;&lt;span style=&quot;background-color: transparent; color: light-dark(rgb(0, 0, 0), rgb(255, 255, 255)); font-weight: normal;&quot;&gt;📘&lt;/span&gt;Clase &lt;code data-end=&quot;835&quot; data-start=&quot;823&quot;&gt;ItemPedido&lt;/code&gt;&lt;/h4&gt;&lt;ul data-end=&quot;984&quot; data-start=&quot;836&quot;&gt;&lt;li class=&quot;&quot; data-end=&quot;908&quot; data-start=&quot;836&quot;&gt;&lt;p class=&quot;&quot; data-end=&quot;852&quot; data-start=&quot;838&quot;&gt;&lt;strong data-end=&quot;852&quot; data-start=&quot;838&quot;&gt;Atributos:&lt;/strong&gt;&lt;/p&gt;&lt;ul data-end=&quot;908&quot; data-start=&quot;855&quot;&gt;&lt;li class=&quot;&quot; data-end=&quot;865&quot; data-start=&quot;855&quot;&gt;&lt;p class=&quot;&quot; data-end=&quot;865&quot; data-start=&quot;857&quot;&gt;&lt;code data-end=&quot;865&quot; data-start=&quot;857&quot;&gt;int id&lt;/code&gt;&lt;/p&gt;&lt;/li&gt;&lt;li class=&quot;&quot; data-end=&quot;889&quot; data-start=&quot;868&quot;&gt;&lt;p class=&quot;&quot; data-end=&quot;889&quot; data-start=&quot;870&quot;&gt;&lt;code data-end=&quot;889&quot; data-start=&quot;870&quot;&gt;Producto producto&lt;/code&gt;&lt;/p&gt;&lt;/li&gt;&lt;li class=&quot;&quot; data-end=&quot;908&quot; data-start=&quot;892&quot;&gt;&lt;p class=&quot;&quot; data-end=&quot;908&quot; data-start=&quot;894&quot;&gt;&lt;code data-end=&quot;908&quot; data-start=&quot;894&quot;&gt;int cantidad&lt;/code&gt;&lt;/p&gt;&lt;/li&gt;&lt;/ul&gt;&lt;/li&gt;&lt;li class=&quot;&quot; data-end=&quot;984&quot; data-start=&quot;909&quot;&gt;&lt;p class=&quot;&quot; data-end=&quot;926&quot; data-start=&quot;911&quot;&gt;&lt;strong data-end=&quot;926&quot; data-start=&quot;911&quot;&gt;Relaciones:&lt;/strong&gt;&lt;/p&gt;&lt;ul data-end=&quot;984&quot; data-start=&quot;929&quot;&gt;&lt;li class=&quot;&quot; data-end=&quot;956&quot; data-start=&quot;929&quot;&gt;&lt;ul data-end=&quot;956&quot; data-start=&quot;931&quot;&gt;&lt;li class=&quot;&quot; data-end=&quot;956&quot; data-start=&quot;931&quot;&gt;&lt;p class=&quot;&quot; data-end=&quot;956&quot; data-start=&quot;933&quot;&gt;ItemPedido ➝ 1 Product&lt;/p&gt;&lt;/li&gt;&lt;/ul&gt;&lt;/li&gt;&lt;li class=&quot;&quot; data-end=&quot;984&quot; data-start=&quot;959&quot;&gt;&lt;ul data-end=&quot;984&quot; data-start=&quot;961&quot;&gt;&lt;li class=&quot;&quot; data-end=&quot;984&quot; data-start=&quot;961&quot;&gt;&lt;p class=&quot;&quot; data-end=&quot;984&quot; data-start=&quot;963&quot;&gt;ItemPedido ➝ 1 Pedido&lt;/p&gt;&lt;/li&gt;&lt;li class=&quot;&quot; data-end=&quot;984&quot; data-start=&quot;961&quot;&gt;&lt;ul data-end=&quot;807&quot; data-start=&quot;651&quot;&gt;&lt;li class=&quot;&quot; data-end=&quot;807&quot; data-start=&quot;771&quot;&gt;&lt;p class=&quot;&quot; data-end=&quot;785&quot; data-start=&quot;773&quot;&gt;&lt;strong data-end=&quot;785&quot; data-start=&quot;773&quot;&gt;Métodos:&lt;/strong&gt;&lt;/p&gt;&lt;ul data-end=&quot;807&quot; data-start=&quot;788&quot;&gt;&lt;li class=&quot;&quot; data-end=&quot;807&quot; data-start=&quot;788&quot;&gt;&lt;p class=&quot;&quot; data-end=&quot;807&quot; data-start=&quot;790&quot;&gt;Getters y setters&lt;/p&gt;&lt;/li&gt;&lt;li class=&quot;&quot; data-end=&quot;807&quot; data-start=&quot;788&quot;&gt;&lt;p class=&quot;&quot; data-end=&quot;807&quot; data-start=&quot;790&quot;&gt;(get id,get producto, get cantidad)&lt;span style=&quot;background-color: transparent; color: light-dark(rgb(0, 0, 0), rgb(255, 255, 255));&quot;&gt;(set id,set producto, set cantidad)&lt;/span&gt;&lt;/p&gt;&lt;/li&gt;&lt;li class=&quot;&quot; data-end=&quot;807&quot; data-start=&quot;788&quot;&gt;&lt;p class=&quot;&quot; data-end=&quot;807&quot; data-start=&quot;790&quot;&gt;Constructor&lt;/p&gt;&lt;/li&gt;&lt;/ul&gt;&lt;/li&gt;&lt;/ul&gt;&lt;/li&gt;&lt;/ul&gt;&lt;/li&gt;&lt;/ul&gt;&lt;/li&gt;&lt;/ul&gt;" style="rounded=0;whiteSpace=wrap;html=1;" vertex="1" parent="1">
          <mxGeometry x="-370" y="-440" width="390" height="330" as="geometry" />
        </mxCell>
        <mxCell id="FzE8s1yZVrFRxl1X2ZAz-16" value="&lt;h4 class=&quot;&quot; data-end=&quot;1010&quot; data-start=&quot;986&quot;&gt;📘 Clase &lt;code data-end=&quot;1010&quot; data-start=&quot;1000&quot;&gt;Vehiculo&lt;/code&gt;&lt;/h4&gt;&lt;ul data-end=&quot;1120&quot; data-start=&quot;1011&quot;&gt;&lt;li class=&quot;&quot; data-end=&quot;1083&quot; data-start=&quot;1011&quot;&gt;&lt;p class=&quot;&quot; data-end=&quot;1027&quot; data-start=&quot;1013&quot;&gt;&lt;strong data-end=&quot;1027&quot; data-start=&quot;1013&quot;&gt;Atributos:&lt;/strong&gt;&lt;/p&gt;&lt;ul data-end=&quot;1083&quot; data-start=&quot;1030&quot;&gt;&lt;li class=&quot;&quot; data-end=&quot;1040&quot; data-start=&quot;1030&quot;&gt;&lt;p class=&quot;&quot; data-end=&quot;1040&quot; data-start=&quot;1032&quot;&gt;&lt;code data-end=&quot;1040&quot; data-start=&quot;1032&quot;&gt;int id&lt;/code&gt;&lt;/p&gt;&lt;/li&gt;&lt;li class=&quot;&quot; data-end=&quot;1063&quot; data-start=&quot;1043&quot;&gt;&lt;p class=&quot;&quot; data-end=&quot;1063&quot; data-start=&quot;1045&quot;&gt;&lt;code data-end=&quot;1063&quot; data-start=&quot;1045&quot;&gt;String matricula&lt;/code&gt;&lt;/p&gt;&lt;/li&gt;&lt;li class=&quot;&quot; data-end=&quot;1083&quot; data-start=&quot;1066&quot;&gt;&lt;p class=&quot;&quot; data-end=&quot;1083&quot; data-start=&quot;1068&quot;&gt;&lt;code data-end=&quot;1083&quot; data-start=&quot;1068&quot;&gt;String modelo&lt;/code&gt;&lt;/p&gt;&lt;/li&gt;&lt;/ul&gt;&lt;/li&gt;&lt;li class=&quot;&quot; data-end=&quot;1120&quot; data-start=&quot;1084&quot;&gt;&lt;p class=&quot;&quot; data-end=&quot;1098&quot; data-start=&quot;1086&quot;&gt;&lt;strong data-end=&quot;1098&quot; data-start=&quot;1086&quot;&gt;Métodos:&lt;/strong&gt;&lt;/p&gt;&lt;ul data-end=&quot;1120&quot; data-start=&quot;1101&quot;&gt;&lt;li class=&quot;&quot; data-end=&quot;1120&quot; data-start=&quot;1101&quot;&gt;&lt;p class=&quot;&quot; data-end=&quot;1120&quot; data-start=&quot;1103&quot;&gt;Getters y setters&lt;/p&gt;&lt;/li&gt;&lt;li class=&quot;&quot; data-end=&quot;1120&quot; data-start=&quot;1101&quot;&gt;&lt;p class=&quot;&quot; data-end=&quot;1120&quot; data-start=&quot;1103&quot;&gt;(get id, get matricula, get modelo)&lt;/p&gt;&lt;/li&gt;&lt;li class=&quot;&quot; data-end=&quot;1120&quot; data-start=&quot;1101&quot;&gt;&lt;p class=&quot;&quot; data-end=&quot;1120&quot; data-start=&quot;1103&quot;&gt;&lt;span style=&quot;background-color: transparent; color: light-dark(rgb(0, 0, 0), rgb(255, 255, 255));&quot;&gt;(set id, set matricula, set modelo)&lt;/span&gt;&lt;/p&gt;&lt;/li&gt;&lt;li class=&quot;&quot; data-end=&quot;1120&quot; data-start=&quot;1101&quot;&gt;&lt;p class=&quot;&quot; data-end=&quot;1120&quot; data-start=&quot;1103&quot;&gt;Constructor&lt;/p&gt;&lt;/li&gt;&lt;/ul&gt;&lt;/li&gt;&lt;/ul&gt;" style="rounded=0;whiteSpace=wrap;html=1;" vertex="1" parent="1">
          <mxGeometry x="-370" y="-90" width="340" height="260" as="geometry" />
        </mxCell>
        <mxCell id="FzE8s1yZVrFRxl1X2ZAz-17" value="&lt;h4 class=&quot;&quot; data-end=&quot;1147&quot; data-start=&quot;1122&quot;&gt;📘 Clase &lt;code data-end=&quot;1147&quot; data-start=&quot;1136&quot;&gt;PedidoLog&lt;/code&gt;&lt;/h4&gt;&lt;ul data-end=&quot;1292&quot; data-start=&quot;1148&quot;&gt;&lt;li class=&quot;&quot; data-end=&quot;1247&quot; data-start=&quot;1148&quot;&gt;&lt;p class=&quot;&quot; data-end=&quot;1164&quot; data-start=&quot;1150&quot;&gt;&lt;strong data-end=&quot;1164&quot; data-start=&quot;1150&quot;&gt;Atributos:&lt;/strong&gt;&lt;/p&gt;&lt;ul data-end=&quot;1247&quot; data-start=&quot;1167&quot;&gt;&lt;li class=&quot;&quot; data-end=&quot;1177&quot; data-start=&quot;1167&quot;&gt;&lt;p class=&quot;&quot; data-end=&quot;1177&quot; data-start=&quot;1169&quot;&gt;&lt;code data-end=&quot;1177&quot; data-start=&quot;1169&quot;&gt;int id&lt;/code&gt;&lt;/p&gt;&lt;/li&gt;&lt;li class=&quot;&quot; data-end=&quot;1197&quot; data-start=&quot;1180&quot;&gt;&lt;p class=&quot;&quot; data-end=&quot;1197&quot; data-start=&quot;1182&quot;&gt;&lt;code data-end=&quot;1197&quot; data-start=&quot;1182&quot;&gt;Pedido pedido&lt;/code&gt;&lt;/p&gt;&lt;/li&gt;&lt;li class=&quot;&quot; data-end=&quot;1217&quot; data-start=&quot;1200&quot;&gt;&lt;p class=&quot;&quot; data-end=&quot;1217&quot; data-start=&quot;1202&quot;&gt;&lt;code data-end=&quot;1217&quot; data-start=&quot;1202&quot;&gt;String estado&lt;/code&gt;&lt;/p&gt;&lt;/li&gt;&lt;li class=&quot;&quot; data-end=&quot;1247&quot; data-start=&quot;1220&quot;&gt;&lt;p class=&quot;&quot; data-end=&quot;1247&quot; data-start=&quot;1222&quot;&gt;&lt;code data-end=&quot;1247&quot; data-start=&quot;1222&quot;&gt;LocalDateTime timestamp&lt;/code&gt;&lt;/p&gt;&lt;/li&gt;&lt;/ul&gt;&lt;/li&gt;&lt;li class=&quot;&quot; data-end=&quot;1292&quot; data-start=&quot;1248&quot;&gt;&lt;p class=&quot;&quot; data-end=&quot;1265&quot; data-start=&quot;1250&quot;&gt;&lt;strong data-end=&quot;1265&quot; data-start=&quot;1250&quot;&gt;Relaciones:&lt;/strong&gt;&lt;/p&gt;&lt;ul data-end=&quot;1292&quot; data-start=&quot;1268&quot;&gt;&lt;li class=&quot;&quot; data-end=&quot;1292&quot; data-start=&quot;1268&quot;&gt;&lt;ul data-end=&quot;1292&quot; data-start=&quot;1270&quot;&gt;&lt;li class=&quot;&quot; data-end=&quot;1292&quot; data-start=&quot;1270&quot;&gt;&lt;p class=&quot;&quot; data-end=&quot;1292&quot; data-start=&quot;1272&quot;&gt;PedidoLog ➝ 1 Pedido&lt;/p&gt;&lt;/li&gt;&lt;li class=&quot;&quot; data-end=&quot;1292&quot; data-start=&quot;1270&quot;&gt;&lt;ul data-end=&quot;1120&quot; data-start=&quot;1011&quot;&gt;&lt;li class=&quot;&quot; data-end=&quot;1120&quot; data-start=&quot;1084&quot;&gt;&lt;p class=&quot;&quot; data-end=&quot;1098&quot; data-start=&quot;1086&quot;&gt;&lt;strong data-end=&quot;1098&quot; data-start=&quot;1086&quot;&gt;Métodos:&lt;/strong&gt;&lt;/p&gt;&lt;ul data-end=&quot;1120&quot; data-start=&quot;1101&quot;&gt;&lt;li class=&quot;&quot; data-end=&quot;1120&quot; data-start=&quot;1101&quot;&gt;&lt;p class=&quot;&quot; data-end=&quot;1120&quot; data-start=&quot;1103&quot;&gt;Getters y setters&lt;/p&gt;&lt;/li&gt;&lt;li class=&quot;&quot; data-end=&quot;1120&quot; data-start=&quot;1101&quot;&gt;&lt;p class=&quot;&quot; data-end=&quot;1120&quot; data-start=&quot;1103&quot;&gt;(get id, get pedido,get estado)&lt;/p&gt;&lt;/li&gt;&lt;li class=&quot;&quot; data-end=&quot;1120&quot; data-start=&quot;1101&quot;&gt;&lt;p class=&quot;&quot; data-end=&quot;1120&quot; data-start=&quot;1103&quot;&gt;&lt;span style=&quot;background-color: transparent; color: light-dark(rgb(0, 0, 0), rgb(255, 255, 255));&quot;&gt;(set id, set pedido,set estado)&lt;/span&gt;&lt;/p&gt;&lt;/li&gt;&lt;li class=&quot;&quot; data-end=&quot;1120&quot; data-start=&quot;1101&quot;&gt;&lt;p class=&quot;&quot; data-end=&quot;1120&quot; data-start=&quot;1103&quot;&gt;Constructor&lt;/p&gt;&lt;/li&gt;&lt;/ul&gt;&lt;/li&gt;&lt;/ul&gt;&lt;/li&gt;&lt;/ul&gt;&lt;/li&gt;&lt;/ul&gt;&lt;/li&gt;&lt;/ul&gt;" style="rounded=0;whiteSpace=wrap;html=1;" vertex="1" parent="1">
          <mxGeometry x="-370" y="190" width="400" height="340" as="geometry" />
        </mxCell>
      </root>
    </mxGraphModel>
  </diagram>
</mxfile>
